<svg version="1" xmlns="http://www.w3.org/2000/svg" width="1269.333" height="1269.333" viewBox="0 0 952.000000 952.000000"><path d="M282.8.7c5.6.2 14.8.2 20.5 0 5.6-.1 1-.3-10.3-.3s-15.9.2-10.2.3zM152 1.8l-21.5.4 9.5 1.4c6.6.9 24.1 1.4 57 1.5 37.5.2 43.7.4 29.5 1-25.9 1-27.7 1.2-12 1.9 7.9.3-11.5.8-45 1l-59 .4 51.2.6c28.2.3 51.6.9 51.9 1.3.4.4-6.4.8-15.2.9l-15.9.2 16 .6c15 .5 14.3.6-12 .9-37.1.5-72.1 1.6-62 2.1 4.4.1 31.4.6 60 .9l52 .7-41 .3c-22.5.2-43.5.6-46.5 1.1-3.1.4 16.3.9 45.5 1.1l51 .4-39.5.5c-40.4.5-39.3.8 9.5 1.9 24 .6 25.7.8 12 1-24.5.4-15.8 1.9 12.5 2.2l24.5.3-17.5.6c-9.6.4-17.7.9-18 1.1-.3.2 6.7.6 15.5.9 10.3.4-4.1.7-40 1l-56 .5 36.5.5 36.5.5-39.5.5c-38.5.5-37.8.5 25 .9 35.5.2 63.2.7 61.5 1.1-1.6.4-22.1.9-45.5 1.1-23.4.1-38.9.6-34.5.9 6.9.5 5.7.7-8 .9-41.4.8-41.6 1.8-.5 2 22.8.2 42.9.7 44.5 1.1 1.7.4-22.2.9-53 1.1-54.4.3-54.8.6-2 1.9l12 .3-14.5.9c-8 .5-16.5 1.3-19 1.7l-4.5.9 6 .2c35 1.4 35.6 1.6 4.5 2.1l-30.5.4 31.5.5 31.5.5-31.5.5c-31.3.5-31.2.5 19.5 1l51 .5-61.5.3c-57.5.3-70.3.8-62.5 2.5 1.7.4 28.2 1 59 1.3 30.8.4 56.9 1 58 1.4 1 .4-12.7 1-30.5 1.4-17.9.3-41.3 1-52 1.4l-19.5.7 15 .6c8.3.4 33 .8 55 .9 23.9.1 38.2.6 35.5 1.1-2.5.4-28.3.8-57.4.8-29.1.1-52.7.4-52.4.7.6.6 81.1 1.4 148.8 1.5 23.4 0 43.4.4 44.5.9 1.2.5-12.2 1-34 1.2-19.8.1-27 .3-16 .5 11 .1 34.6.8 52.5 1.5l32.5 1.3-19.5.6c-10.7.4-33.4.8-50.5.9l-31 .4 19 .7c10.5.3 32.1.8 48 1 28.4.4 28.1.4-16 .9l-45 .5 40 .4c53.4.4 62.4 1.7 15.5 2.2-38.3.3-37.1.5 17 1.8l33.5.8-33 .3c-32.6.3-36.2 1.5-6 2 17.2.3 15.9.8-5 1.9l-16 .8 17 .3c16.7.3 16.8.3 7 1-5.5.4-27.1.9-48 1.1l-38 .4 34 .5 34 .5-35.6.3c-40.8.2-63.5 1.2-55.4 2.3 2.8.4 21.2.9 41 1 35.3.4 35 .4-18.5.9-46.9.5-49.8.6-21 .8 18.4.1 41.4.5 51 1l17.5.7-30.5.5-30.5.5 41 .4c25.1.2 39.4.7 37 1.2-2.2.4-24 .9-48.5 1-24.5.1-52.4.5-62 .8l-17.5.7 18 .4c11 .1 16.6.6 14.5 1-2.3.5 1.1.8 9.5.9 7.2 0 14.6.6 16.5 1.2 1.9.6 12.7 1.4 24 1.8 18.6.7 16.2.8-26.5 1.2-41.2.3-44 .4-22.5.9 23.1.5 23.8.5 13 1.2-6.3.5-17.1.8-24 .8-6.9 0-16.3.3-21 .8-5.5.4 9.7.9 42.5 1.2l51 .5-57 .4c-41.4.3-52.5.7-40.5 1.1 9.1.4 32.7.8 52.4.9 19.8 0 35.7.3 35.5.5-.2.2-25.4.9-55.9 1.6-30.5.7-57.3 1.6-59.5 2-2.2.4 19.4.9 48 1.1 54 .3 48.6 1.2-11.5 2-20.9.3-23.8.4-14 .9 11.1.4 9.7.5-12 1-23 .5-21.9.6 19.5 1l44 .5-36 .5-36 .5 56.5.5c35.8.3 50.1.6 39 1-9.6.3-16.4.8-15 1.1 1.4.4-15.9.8-38.5.9l-41 .3 46.5.8c25.5.5 47.6 1 49 1.2 1.4.2-21.6.6-51 .8-29.4.2-48.3.6-42 .8l11.5.5-13 .6c-7.3.3 11.3.8 42.5 1l55.5.5-57.5.5c-54.6.5-55.9.5-24.5 1l33 .5-41 .5-41 .5 60 .5c33 .2 53.5.6 45.5.8-8 .1-33.4.6-56.5 1.1l-42 .8 34 .3c18.7.1 38.5.6 44 1 8.7.6 7 .7-12.5 1l-22.5.3 25.8.8c42 1.3 35.2 2.8-13.8 3-23.6.1-47.9.5-54 .9-7 .4 7.7.8 40 1 28.1.1 57.5.6 65.5 1 11.6.5 6.2.7-26.5 1-35.8.4-38.4.5-20.5 1 19.9.5 19.5.6-12.5.9-19.6.1-32.2.6-31 1.1 1.1.5 20.7.9 43.5 1 24.2.1 40.7.5 39.5 1-1.1.5-17.7.9-37 1-39 .3-42.2 1.6-5 2.1 22.9.3 22.3.4-14 .9l-38 .5 52 .5c45.7.4 48.9.5 26.5 1l-25.5.6 26 .4 26 .5-35.5.5-35.5.5 29.5.5 29.5.5-29 .5-29 .5 18.5.5c14.2.4 8.6.6-24 1l-42.5.5 54 .4c50.2.4 52.4.5 31 1.2-30 1.1-37.6 2.6-14 2.9 23 .2 29.3 1.4 12.6 2.3-6.8.4-20.3.7-30 .8-9.7.1-18.7.5-20.1.9-1.4.4 11.9.9 30 1.1l32.5.3-41.7.5c-22.9.3-42 .9-42.4 1.3-.4.5 14.1.9 32.2 1 31.3.2 31.9.3 12.4.8-19.3.5-18.4.6 15 .9 22 .2 33.8.7 31 1.2-2.5.4-31.3.9-64 1-72.1.2-67.5 1.5 10 2.7l53.5.8-64.5.4c-38 .2-60.4.6-54.5 1 5.5.4 34.3.9 64 1.1 48.4.3 51 .4 25 .9l-29 .5 22.5.4c29.2.5 21.8 1.9-16 3l-26.5.8 21.5.2c29.2.3 24.2 1.9-7 2.2-34 .3-16 1.6 28.5 2 31.2.2 32 .3 15.5 1-9.6.3-35.9.8-58.5 1l-41 .4 48 .5 48 .5-31.5.5-31.5.4 22.5.6 22.5.6-19.1.2c-10.5.1-27.4.5-37.5.9-17.4.7-17.9.8-9.4 1.4 5 .4 25 .8 44.5 1 33.8.3 34.6.3 16.5 1-10.4.4-34.4 1.1-53.3 1.7-18.9.6-34.6 1.3-34.9 1.6-.4.3 7 .7 16.3.7 9.3.1 31.1.5 48.4.8l31.5.7-45.5.4-45.5.5 31.5.5 31.5.5-31.5.4c-40.7.5-27.4 1.8 22.5 2.1 19.3.2 43.8.6 54.5 1 19 .6 18.6.6-15 .9-19 .2-48.4.7-65.5 1l-31 .7 32 .4 32 .5-32.5.5c-32.2.5-32 .5 22 1l54.5.5-49.5.5-49.5.5 54 .5 54 .5-58 .4c-31.9.2-56 .7-53.5 1.1l4.5.6-4.5.5c-2.5.3 21.8.7 54 1l58.5.4-43 .5-43 .5 46 .5 46 .5-48 .5c-33.1.3-43.2.6-32.5 1l15.5.6-22 .3c-46.4.6-29.5 1.8 29.5 2.1 37.1.2 56.7.6 49.5 1-6.6.4-36.7.8-67 1-54.1.2-68.5 1.5-24 2.2l22 .3-27.5.5c-23.1.5-18.2.6 31 1 48.3.3 54.7.5 36.5 1.1-12.1.3-37.1.8-55.5.9l-33.5.3 42.5.9c71.6 1.4 74.6 2.5 8 2.8-49.8.3-54.8.5-33.5 1 13.8.4 44.1.9 67.5 1.1 38.9.3 40.5.4 19 .9l-23.5.5 21 .5 21 .5-32 .5-32 .5 33 .5c29 .5 25.8.6-26.3.8-39.2.1-59.1.5-58.7 1.2.4.6 5.8 1 12.9 1 6.8 0 23.9.3 38.2.7l25.9.8-33.5.5-33.5.5 36 .4c20 .2 34.9.7 33.5 1.1-1.5.5 6.9.9 20 1.1 23.1.3 16.5.5-81 2-16.5.3-7.7.5 29.5.9l53 .5-57.5.4c-32.6.2-55.3.7-52.5 1.1 2.8.5 7.3.9 10 1 4.4.2 4.7.3 2 1-1.7.4 7 .9 20.5 1.1l23.5.4-27 .5c-23.2.5-19.1.6 29 1 30.8.2 53.1.6 49.5.9-5 .5-3 .7 9 1.1 13.2.5 11.2.6-14 .9-32.1.3-37.3 1.8-8 2.2 13.8.3 15.2.4 6.5.6-6.8.3-11.2.8-11.6 1.5-.5.8-9.1 1.4-27.6 1.8l-26.8.7 30 .2c16.5.2 37.9.7 47.5 1 14.6.6 10.8.8-22.5.9-25.9.1-39.6.5-38.9 1.2.5.5 9.2 1.1 19.4 1.3 13.8.2 10 .4-14.5.6-32.6.4-32.8.5-16.5 1.3 9.1.4 28.9 1.2 44 1.6 17.6.5 24.1 1 18 1.2-9.3.4-9.2.4 5 1 8.4.3-11.1.8-46.5 1l-61 .5 51 .5 51 .5-36.5.5-36.5.5 36 .5 36 .5-36.5.8c-20.1.4-42.6 1.1-50 1.5-13.5.7-13.4.7 14 1.5 15.1.5 43.9 1.2 64 1.5l36.5.7-48.5.8c-78.8 1.4-87 2.2-25 2.7 53 .5 53.2.5 21 1-21.5.4-28.3.7-20 1l12.5.4-12.5.6-12.5.6 11 .5c9.5.4 8.4.5-8.5.8-36.1.6-39.3 1.8-5.5 2.1 17.1.1 43.6.6 59 .9l28 .7-22.5.2c-12.4.1-27.7.5-34 1l-11.5.7 14.5.6c8 .4 22.2 1 31.5 1.5l17 .9-35 .5-35 .5 40 .5 40 .4-35 .8c-19.2.5-47.4 1.2-62.5 1.6l-27.5.8 51.5.4c37.2.3 46.4.6 33 1l-18.5.6 28.5.3c31 .4 40.3 1.2 26 2.4-4.7.4-10.5.8-13 .9-2.5.1-.2.5 5 .8 5.2.3-13.7.8-42 .9-28.3.2-56.2.7-62 1.1-6.6.4 9.9.8 44 1l54.5.4-54.7.5c-30 .4-54.9.9-55.2 1.2-.3.3 13.5.9 30.6 1.3 17.2.3 36.9 1.1 43.8 1.6 6.9.5 22.2 1 34 1.1 31.7.3 20.7.9-34.5 1.8l-49 .8 51.5.3c28.3.2 50.2.5 48.5.7-1.6.2-12.4.8-24 1.4-11.5.5-24.4 1.3-28.5 1.6-7.2.7-7.3.7-3 1.3 3.2.5 1.1.8-7.5 1-30.9.7-24.4 1.7 13.5 2.1l40.5.4-36 .5-36 .5 39.5.4c35.4.4 44.1 1.3 20 2.2l-7.5.2 5.5.6c12.9 1.4-2.9 2.1-49.9 2.3l-48.6.2 46.5.7c25.6.3 56.2.7 68 .9 31.5.3 20.9 1.7-19.3 2.4-18.8.3-47.2 1.2-63.2 1.9l-29 1.2 19.5.6c10.7.4 38.4.8 61.5 1l42 .4-46.5.5c-37 .4-42.2.6-25.5 1 20 .4 19.3.5-15 1-32.6.5-29.7.6 32 1 63.8.3 65.7.4 31.3.9-20.2.4-37 1-37.4 1.4-.4.4 11.2.8 25.7.9l26.4.2-24.7.5c-13.5.3-24.9.9-25.3 1.2-.3.4 11.3.8 25.9 1 19.5.3 26.8.7 27.8 1.6 1 1-3.9 1.3-24.3 1.5l-25.4.2 23.5.6c21.8.5 20.4.6-20 1-42.5.4-42.9.5-17.5 1 25.5.5 25.8.5 14 1.4-6.6.5-19.2 1.2-28 1.5l-16 .7 10.5.4c8.6.4 6.9.5-10 1l-20.5.6 28 .4c24.3.4 26.2.5 14.5 1-8.5.4 4.8.8 36 1l49.5.5-63.5.5-63.5.5 58.5.3c32.2.2 60.5.7 63 1.1 2.9.6-5.5 1-23.5 1.1-28.4.3-26.6 1.4 3.5 2.1l12.5.2-10 .7c-5.5.4-31.1.9-57 1l-47 .3 43.5.8c70.8 1.3 72.3 1.4 29.5 1.9-33.8.4-37.7.5-22 1l19 .5-24.5.7c-28.7.7-36.9 2.1-19 3.1 6.3.4 16.9.8 23.5.9l12 .2-14 .6c-8.1.3 6.4.7 34.8.8 31.6.1 48.7.5 48.7 1.2s-18.7 1.1-53.7 1.2c-43.3.1-49.5.3-31.8.9 12.1.3 38.2.8 58 1l36 .4-29 .5-29 .5 23 .5 23 .4-21.5.7c-11.8.4-35.9 1.1-53.5 1.5l-32 .9 46 .5 46 .5-48.5.4c-26.7.2-49.8.6-51.5 1-4.2 1 35.7 2.1 83.4 2.3l40.6.2-33 .7c-47.2.9-48.4 1-45.5 1.9 1.4.4 15.8.9 32 1.1l29.5.3-18 .8c-9.9.4-33.7 1-53 1.5-45.1.9-35.9 2 21.5 2.4l43.5.3-30 .6c-16.5.4-38.1.9-48 1.1l-18 .3 18.5.6c11.6.4 15.5.7 10.5.9-11.2.5-16.2 1.8-7.3 2 8.7.1 10.1 2.1 1.6 2.2-3.5 0-8.5.4-11.3.9-3.5.5.5.8 14 1 19.7.2 20.7 1.7 1.5 2.1l-9.5.2 6.5.7c3.6.4 13.3.9 21.5 1.1l15 .3-20 .6-20 .6 27.5.4 27.5.5-33.5.5-33.5.5 47.5.5 47.5.5-32.5.5-32.5.5 27 .5 27 .4-19 .7c-10.4.3-30.5.7-44.5.8-14 .1-26.1.5-26.8 1-.7.4 10.8 1.1 25.5 1.5 14.7.5 33.1 1.1 40.8 1.5 12.4.7 10.5.8-17 1.1l-31 .3 44.9.8c24.6.4 45.3 1 46 1.3.6.2-21.4.6-48.9.7l-50 .3 32.5.7c17.9.3 40.4.8 50 .9l17.5.4-12 .6c-6.6.4-32.7.9-58 1-33.1.3-42.3.5-33 1.1 7.2.3 24.9.7 39.4.8 14.5 0 26.2.4 25.8.7-.3.3-13.5.9-29.4 1.3l-28.8.8 20 .3c15.9.3 18.3.5 11.5 1-4.7.3 10 .7 32.7.8 26.2.1 41.4.6 41.8 1.2.3.5 2.5 1.1 4.8 1.2 7.7.2-13.5 1.5-39 2.3-13.9.5-25 1.2-24.7 1.6.3.5-10.4 1-23.8 1.2-16.8.1-10.7.3 19.7.6 24.2.2 45.4.7 47 1.1 1.9.5-1.6.8-9.6.9-6.9 0-20.9.4-31 .8-16.9.7-15 .8 24.6 1.3l43 .5-66 .5c-66 .5-66 .5-26 1l40 .5-26.5.5c-20.2.3-24.1.5-16.5 1 5.5.3 9.6.8 9 1-.5.3 12.7.7 29.5 1l30.5.5-33.5.5c-23.6.3-30.2.6-22.5 1l11 .6-13.5.4c-8.7.3-.7.7 22.5 1l36 .5-51 .4c-39.5.3-48.2.6-38.5 1.2 17.4 1.2 17.7 1.6 1.5 2-7.7.2 3.3.6 24.5 1 39.3.6 85.8 2.4 86.8 3.4.3.3-12 .6-27.4.7-18.9.1-24.7.4-17.9.8 6 .4-6 .8-30 1l-40 .4 38.7.6c39.7.6 52.6 1.8 24.2 2.2l-15.9.2 14.5.6c12.1.4 9.3.6-17 1l-31.5.5 45 .4c60.5.5 74.6 1.3 37.6 2.4-15.1.4-41 .8-57.5.9l-30.1.1 29.9.8c16.4.4 30.1 1 30.4 1.3.3.3-2.4.7-5.9.7-3.5.1-14.5.5-24.4.8l-18 .7 24.5.4c20.2.3 22.6.5 13.5 1-7.5.4-1.6.7 18.9.8 16.5.1 29.7.4 29.4.7-.7.7-28.6 2.7-48.3 3.4l-17 .6 13.5.5c13.3.6 13.3.6-7.5.9-11.5.2-26.4.7-33 1.1l-12 .6 9 .4c6.9.2 8.2.4 5.5 1-1.9.4 22.4.9 54 1.1l57.5.4-46 .5c-42.4.5-44 .6-20.5 1l25.5.5-34 .5c-18.7.3-29 .7-23 .9 9.2.4 10.2.5 6 1.1-2.7.4 16.6.8 43 1 42.7.3 45.6.4 26 1.1-12.1.3-26.8.7-32.7.8-6.5 0-10.8.5-10.8 1.1 0 .6 9.7 1.1 26.8 1.2l26.7.2-23 .6-23 .6 17.5.3c30.5.7 7.5 1.8-45 2.2-33.1.2-42.2.5-30 .9l17.5.5-12.5.6-12.5.5 17.5.4c14.2.3 16.1.5 10 1-4.2.4 8.4.8 29 1 20.2.2 33.4.6 29.5 1l-7 .6 7.3.2c4 .1 7.2.6 7.2 1.2s-11.1 1.1-30.7 1.2l-30.8.3 30 .5c29.8.5 29.9.5 10 .9-11 .2-27.9.7-37.5 1-16.7.7-17 .8-6.5 1.1 6.1.1 27.4.6 47.5.9l36.5.7-30.5.4-30.5.5 27 .5 27 .5-37 .4c-22.6.2-34.9.7-31.5 1.1 3 .5 22.6.9 43.5 1.1l38 .2-29.3.7c-16.1.4-29.5 1-29.9 1.4-.3.3 2.9.7 7.3.7l7.9.2-6 .7c-3.3.4-20.6.9-38.5 1.1-28.8.2-30.7.3-17 .9 8.5.4 27.7.9 42.5 1.1l27 .3-22 .6c-19.2.5-16.3.6 22 .9l44 .4-61.3.8c-33.8.4-61.6 1-62 1.3-.3.3 25.5.7 57.4.8 52.5.1 55.5.2 31.5.9-14.5.5-30.4 1-35.5 1.2-5 .1 8 .5 28.9.7 31.7.3 35.5.5 23 1-8.2.4-33 .9-55 1.1-29.5.2-35.9.5-24.5.9l15.5.6-15 .3c-31.2.7-30.5 1.8 1.5 2.1 18.9.2 28.5.6 24 1-4.1.4 12.8.8 37.5 1 26.5.2 40.5.6 34 1l-11 .6 8 .3 8 .4-5.5.7c-3 .5-27.3.9-54 1.1l-48.5.3 49.2.6c27.1.3 49.6.9 49.9 1.3.4.4-18.4.7-41.7.7-25.6 0-43 .4-43.9 1-1 .6 11 1.1 35 1.2l36.5.3-35.5.5c-27.2.4-31.9.6-20 1 12.4.4 8.8.6-18 1l-33.5.5 42.4.3c23.3.1 42.1.5 41.7 1-.4.4-14.6.9-31.4 1.3l-30.7.5 47 .4c39.6.3 44 .5 28 1.1-10.4.3-34.1.8-52.5 1-32.2.3-32.7.4-13.5.9 11 .3 19.6.7 19 .9-.5.1-.1.6 1 1.1 1.4.6.2.9-4.5 1.1-6.1.2-6.3.3-2 .8 2.5.3-6.3.8-19.5 1.1-21.7.5-19.8.6 20 .9 24.2.3 41.3.7 38 1.1-9.1.9-3.6 2 12 2.3 7.2.1-.7.5-17.5.7l-30.5.5 41 .5 41 .5-44 .5c-39.5.4-41.7.5-21.3.9 12.4.4 23 .9 23.4 1.3.4.5-16.8.9-38.2 1l-38.9.1 45 .8c71.2 1.3 72.9 1.4 21.5 1.8-26.7.2-53.4.7-59.5 1.1-8 .5-1.2.7 25 1 19.8.1 50.2.6 67.5.9l31.5.7-22 .4c-14 .2-20 .6-16.5 1 4.3.5 2.6.7-8 1-12.4.3-12.9.4-6 1 4.1.4-12.1.8-36 1-48.3.4-41.3 1.5 13.5 2.1l30 .4-36 .5-36 .5 48 .5c44.9.4 46.3.5 21 1l-27 .5 35 .5c32.6.5 30.6.6-29 1-40.7.3-56.7.6-44 1 22.3.6 24.2 1.8 3.5 2.3-7.4.1 12.8.5 45 .7l58.5.5-56.5.5c-43.1.4-50.7.6-32 1l24.5.4-19.5.6c-14.4.4-5.6.7 33.5 1 51.6.4 52.2.5 22 1l-31 .5 20.5.5c19.3.4 18.5.5-15 1l-35.5.5 50 .4c47.7.4 49.8.8 13 2.1l-8 .3 6.5.7c4.6.5.7.8-13.5 1-18.9.4-19.4.4-8.5 1l11.5.6-13.5.3c-7.4.2-20 .6-28 1l-14.5.6 19.9.7c11 .5 23.6.9 28 1l8.1.2-8 .6c-4.6.4 6.9.8 27.5 1l35.5.3-48.9.8c-64.4 1.1-69.9 1.4-29.6 1.9 22.3.3 30.2.6 23.5 1l-10 .6 14.5.4 14.5.4-10 .6-10 .6 9.5.5c5.2.3-7.6.7-28.5.9l-38 .4 33 .8c18.2.4 38.2 1.1 44.5 1.6 11.4.8 11.3.9-10 1.2-11.8.1-35.9.6-53.5.9l-32 .7 44 .4c48.3.4 45.5 1.6-5 2.1-39.4.3-20.9 1.5 31 2 32.2.2 35.5.4 21.5.9-9.1.4-28 .9-42 1.1l-25.5.4 27.5.5 27.5.5-35 .4c-22 .3-32.6.7-28.5 1.1 3.6.4 32.4.9 64 1.1l57.5.4-63 .5c-44.2.4-55.7.7-38.5 1l24.5.4-21.5.6-21.5.6 22.5.3c12.4.2 20.9.7 19 1.1-2.7.5-1.3.8 6 1.2 10.5.6 28.2 2.7 28.9 3.4.2.2-6.1.4-14 .4-11.6.1-14 .3-12.4 1.2 1.4.9 10.8 1.4 29.5 1.6 15.1.3 26.6.8 25.5 1.3-1.1.4-11.4.9-23 1-22.3.2-23.2.4-6.5 1.8 8.2.6 1.6.9-30.5 1.2l-41 .4 52 .5 52 .5-47 .4c-25.9.1-50.8.6-55.5 1-5.3.5 10.1.9 41.5 1.1 49.4.4 49.7.4 21.5 1.1-15.7.3-39.1.8-52 .9-39.5.5-10.2 1.7 50.5 2l53 .3-65.8.7c-36.2.4-66 1-66.4 1.4-.3.3 17.8.6 40.3.7 49.1.1 71.3 1.4 34.4 2l-23.5.3 16.5.6c15.5.5 16 .5 8.6 1.3-4.3.4-21.9.8-39 .9-26.5.1-29 .3-16.6.8 21.5 1.1 22.7 1.3 9 2-6.9.3 12.5.7 43 .9 30.5.2 54.2.7 52.5 1.1-2.2.5-.5.8 6 1 8.4.2 8.7.3 5 1.3-2.4.6-24.7 1.3-55 1.6-47.7.6-49.2.7-23 1.1l28 .5-33.5.5-33.5.5 43 .3c46.1.4 66.8 1.8 32.5 2.2-10.7.2-30.1.6-43 .9-22 .7-20.5.8 22.5 1.1l46 .3-35.9.8c-19.8.5-36.9 1-38 1.2-1.2.2 11.4.5 27.9.7 16.5.1 33.8.5 38.5.9 6.5.6 2.8.8-15.6.9-33.3.3-43.5 1.5-17.9 2.2l19 .6-24.2.2c-15.4.1-24.3.6-24.3 1.2s14.7 1.1 41.8 1.2l41.7.3-28 .5-28 .5 27 .5 27 .4-43 .7c-23.6.3-48.1.7-54.4.8-6.3 0-11.1.4-10.7.8.4.5 26 1.1 56.9 1.4l56.2.5-65 .4c-35.7.2-63.6.5-62 .7 1.7.2 31.4.7 66 1.2l63 .8-46 .3c-49.4.4-46.9.9 15 2.8 24.2.7 23.6.8-21.4 1-25.5.1-46.2.5-45.9.8.4.3 15.2.9 33 1.3l32.3.8-35.5.2c-39.1.3-43.8 1.7-7.5 2.2 21.9.3 21.3.4-13 .9l-36 .5 24.5.4c13.5.2 32.6.7 42.5 1l18 .7-23.5.3c-12.9.2-31.4.6-41 1-16.3.6-14.9.6 21 1.3 21.2.5 50.2.9 64.5 1l26 .2-23.5.7c-12.9.3-32.3.8-43 1l-19.5.4 28.5.5 28.5.5-36 .5c-38.5.4-38.2.4 14.5 2.1 6.6.2-1.2.6-18.5.9l-30 .5 29.5.5c22.8.3 26.9.5 18 1-9.7.5-7.7.7 13.5 1l25 .5-30 .5-30 .5 38 .5 38 .4-25 .6c-13.7.4-40.9.8-60.4.9-19.5 0-35.2.4-34.8.7.3.3 20.3.9 44.4 1.3l43.8.8-48.5.2c-26.7.1-48 .5-47.3.7.6.3 20.9.9 45 1.3l43.8.8-36 .3c-19.8.1-35.1.5-33.9.7 1.1.2 23.9.8 50.5 1.2l48.4.8-54.5.3c-53.6.4-53.6.9 0 2.1 11.6.3 5.6.5-20 .9l-36.5.5 35.5.5c22.1.2 32.1.6 26.5 1-8.2.6-8.5.7-3.5 1 3 .3-9.8.7-28.5 1-30.7.5-28.1.6 27 .8 33.6.2 61.9.7 63 1.2 1.2.5-25.6 1-63 1.2l-65 .3 60.5.5 60.5.5-60 .5c-33 .3-48.4.6-34.2.7 16 .2 25.7.7 25.7 1.3 0 .6-4.3 1.1-10.2 1.2-5.7.1.3.5 13.2.9 37.8 1.1 56 2.1 55.4 3-.3.5-23.3 1-51.2 1-28.4.1-48.5.5-45.7.9 2.8.5 23.5.9 46 1.1l41 .2-35.9.8c-35.9.8-45.9 1.5-29.1 2 8.5.3 8.2.3-4.5.9-7.4.3 14.4.8 48.5 1 38 .2 57.4.6 50 1-6.6.4-31.6.9-55.5 1.1l-43.5.4 35 .5c33.5.5 35.4.8 13.5 2.3-2.5.2.2.5 6 .8 6.8.2 1 .5-16 .9l-26.5.6 32 .3c39.1.5 27 1.7-22.5 2.1-35.9.4-34.6.7 7 1.9l29.5.8-43 .3c-25.1.2-40.5.6-37 1 3.3.4 26.5.9 51.5 1.1 42.9.3 44 .4 19 .9-14.6.3-23.6.7-20 .9l6.5.4-6 .7c-3.5.4-4.9.8-3.5 1.1 1.4.2-9.6.6-24.5.9-20.3.4-10.6.6 39.5.9 36.6.2 64 .7 61 1.1-3 .5-26.2 1-51.5 1.1l-46 .4 50.5.5 50.5.5-52 .4c-29.9.2-49.9.7-47 1.1 2.8.5 20.3 1 39 1.1l34 .4-49 .5-49 .5 40.5.5 40.5.5-28.5.5c-27.2.5-26.1.6 22 1 39.6.3 46 .6 29.5 1l-21 .5 16 .5c14.4.5 13.1.6-13 1-21.5.3-26.3.5-18.5 1l10.5.6-16 .3c-8.8.2-24.3.6-34.5 1-16.6.6-14 .7 26 1.4 24.5.4 51.3 1.1 59.5 1.5l15 .7-19.5.6c-10.7.4-31 .8-45 1-14 .2-21.1.5-15.7.6 5.3.2 9.7.8 9.7 1.3 0 .6 6 1 14.8 1.1 8.1.1 19.2.5 24.7.9l10 .7-10.5.3c-59.4 1.6-59.2 1.6-13.5 1.9 23.7.2 45.7.7 49 1.1 3.3.4-20 .9-52 1-31.9.2-53.3.7-47.5 1l10.5.6-13 .4c-7.1.3 12.4.7 43.5 1l56.5.5-57 .4c-58.5.4-64.5 1.6-11 2.2 21.4.2 25.3.4 16.5.9l-11.5.6 9.9.2c5.5.1 9.6.5 9.2.9-.4.5-13.7 1-29.4 1.3-26 .5-23.8.6 22.8.9 28.3.2 50.4.7 49 1.1-1.4.4-17.8.9-36.5 1.1l-34 .4 28 .5c25.5.5 23.2.6-26 1l-54 .5 61.5.5 61.5.5-56 .5c-43.1.3-50.7.6-33 1 12.7.3 20.8.8 18 1.1l-5 .5 5.5.3c3 .2 16.3.8 29.5 1.5 22.7 1.2 23.4 1.3 12 1.7l-12 .3 12 .6 12 .6-13.5.4c-11.6.4-9.9.5 12 1l25.5.6-34.5.3c-57.9.6-64.4 1.7-13 2.2l45.5.4-41.5.5-41.5.5 35.5.4c37.8.3 52.2 1.7 24 2.2-16.3.3-16.2.4 8 .9l24.5.6-32 .3c-17.6.2-47.1.7-65.5 1l-33.5.7 27 .3c14.9.2 44.1.7 65 1l38 .7-67 .4-67 .5 68 .5 68 .5-63 .3c-41.1.1-62.5.6-61.5 1.2.9.6 13.4 1 29.5 1.1 15.4.1 34.5.5 42.5.9 13.8.6 13.1.7-13.5 1.1l-28 .4 36 .5c32.8.5 34.2.6 16 1l-20 .4 17 .6 17 .6-16.5.4c-12.4.4-7.1.6 21.5 1l38 .5-45.5.3c-25 .2-47.3.6-49.5 1.1-5.4 1 26.2 2 68.9 2.3 32.9.2 33 .2 11.1.8l-22 .6 31.5.4 31.5.5-36.5.5c-36.1.5-36.2.5-14 1l22.5.5-35 .5c-31.1.5-27.6.6 31 .9 36.3.2 67.4.7 69 1 3.6.9-21.6 1.9-73.5 3.1-28.7.6-17.1.7 49 .4 93.7-.4 189.5-2 197.5-3.3 3-.5-19.5-1-55.5-1.2l-60.5-.4 40.5-.5c30.3-.4 36.2-.7 23.5-1-12.5-.3-6-.6 24.5-1l41.5-.5-27-.5-27-.4 26.5-.6 26.5-.6-30.1-.2c-16.5-.1-36.3-.5-44-.9l-13.9-.8 8.5-.6c4.7-.4 30.6-.8 57.5-1l49-.4-34.5-.5c-32.3-.5-33.2-.6-14.5-1l20-.4-15.5-.6-15.5-.6 21.5-.4c21.2-.5 21-.5-13-1l-34.5-.5 29.5-.4c26.6-.4 28.2-.5 16-1.2-7.4-.3-25.4-.7-40-.9-14.6-.1-27.4-.5-28.5-1-1.2-.5 24.5-1 60.5-1.2l62.5-.3-68-.5-68-.5 67-.5 67-.4-38.5-.7c-21.2-.3-50.9-.8-66-.9l-27.5-.4 33-.7c18.2-.3 47.4-.8 65-1l32-.3-25-.6c-23.6-.5-24.1-.6-9-.9 27.9-.5 13-1.9-25-2.2l-36-.4 41.5-.5 41.5-.5-46-.4c-51.6-.5-45.6-1.6 12-2.2l34-.3-26-.6c-21.4-.5-23.7-.6-13-1l13-.4-12-.6-12-.6 12-.3c11.2-.4 10.4-.5-12.5-1.7-13.5-.6-27.2-1.3-30.5-1.5-6-.2-6-.3-1.5-.8 2.5-.3-6.1-.8-19-1.1-18.5-.4-11.6-.7 32-1l55.5-.5-61.5-.5-61.5-.5 54-.5c49.2-.4 51.5-.5 26-1l-28-.5 33.5-.4c18.4-.2 34.6-.7 36-1.1 1.4-.4-20.9-.9-49.5-1.1-46.8-.3-49.1-.4-23.3-.9 15.7-.3 29-.8 29.4-1.3.4-.4-3.7-.8-9.2-.9l-9.9-.2 11-.6c8.2-.5 3.9-.7-17-.9-53.9-.6-48.3-1.8 10.5-2.2l57.5-.4-57-.5c-31.3-.3-51.1-.7-44-1l13-.4-11-.6c-6-.3 15.1-.8 47-1 31.9-.1 55.1-.6 51.5-1-3.6-.4-25.8-.9-49.5-1.1-45-.3-44.2-.4 13-1.9l11-.3-10.5-.7c-5.8-.4-17-.8-25-.9-8.1 0-15-.5-15.6-1.1-.5-.5-5.2-1.1-10.4-1.3-5.2-.1 2-.4 16-.6 14-.2 34.1-.6 44.5-1l19-.6-15.5-.8c-8.5-.4-35.3-1-59.5-1.4-39.3-.7-42.1-.8-26-1.4 9.9-.4 25.2-.8 34-1l16-.3-11-.6c-8.4-.5-4.1-.7 18-1 26.1-.4 27.4-.5 13-1l-16-.5 21-.5c16.4-.4 9.8-.7-30-1-48.3-.4-49.5-.5-22.5-1l28.5-.5-41-.5-41-.5 49.5-.5 49.5-.5-34.5-.4c-19-.1-36.7-.6-39.5-1.1-2.8-.4 17.3-.8 46.5-1 28.3-.1 50-.6 48.2-1-5.1-1.2-5-2 .4-2.2 15.7-.6-40.4-1.5-80.6-1.3-34 .1-40 0-21-.4 14.6-.3 25.4-.9 24-1.2-1.8-.4-.9-.7 3-.9l5.5-.3-6.5-.7c-4.1-.4 2.8-.8 18.5-1 23.2-.2 43.3-1.3 37.5-2-1.4-.1-8.3-.6-15.5-1-7.5-.4 9.7-.6 41-.4 49.1.2 51.3.2 24.5-.6-41.8-1.3-42.8-1.6-6.5-2 50.5-.5 63.2-1.6 24-2l-32-.4 26.5-.6c16-.3 22.5-.7 16.5-.9-5.5-.3-8.2-.6-6-.8 2.2-.1 8.3-.6 13.5-1 7.3-.6 1.4-.9-25.5-1.3l-35-.5 43.5-.4c23.9-.2 48.9-.7 55.5-1.1 6.9-.4-13.4-.7-48.2-.7-33.1.1-60.5-.2-60.9-.6-.4-.4 5.3-.8 12.7-.9 13.2-.2 13.3-.2 4.4-.8l-9-.6 8-.4c4.4-.1 21.1-.6 37-.9l29-.7-40.5-.3c-22.3-.2-42.7-.6-45.5-1.1-2.8-.4 17.3-.8 45.7-.9 27.9 0 50.9-.5 51.2-1 .6-.9-16.4-1.9-53.4-3-12.9-.4-18.9-.8-13.2-.9 5.9-.1 10.2-.6 10.2-1.2s-9.7-1.1-25.7-1.3c-14.2-.1 1.4-.4 34.7-.7l60.5-.5-60.5-.5-60.5-.5 65-.3c37.4-.2 64.2-.7 63-1.2-1.1-.5-29.2-1-62.5-1.2-55-.2-57.4-.3-26.5-.8 18.7-.3 31.5-.7 28.5-1-5-.3-4.7-.4 3.5-1 5.7-.4-4-.8-26-1l-35-.5 37-.5c25.6-.4 31.9-.6 20.5-.9-53.6-1.2-53.6-1.7 0-2.1l54.5-.3-48.4-.8c-26.6-.4-49.1-1-50-1.2-.9-.3 14.6-.6 34.4-.7l36-.3-43.8-.8c-24.1-.4-44.4-1-45-1.3-.7-.2 20.9-.6 47.8-.7l49-.2-43.8-.8c-24.1-.4-44.1-1-44.4-1.3-.4-.3 15.3-.7 34.8-.7 19.5-.1 46.7-.5 60.4-.9l25-.6-37.5-.4-37.5-.5 30-.5 30-.5-25-.5c-21.2-.3-23.2-.5-13.5-1 8.9-.5 4.8-.7-18-1l-29.5-.5 30.5-.5c17.2-.3 25.5-.7 19-.9-52.7-1.7-53-1.7-14.5-2.1l36-.5-28.5-.5-28.5-.5 20-.4c11-.2 30.6-.7 43.5-1l23.5-.7-26-.2c-14.3-.1-43.3-.5-64.5-1-36.4-.7-37.5-.7-20.5-1.3 9.9-.4 28.6-.8 41.5-1l23.5-.3-18-.7c-9.9-.3-29-.8-42.5-1l-24.5-.4 36-.5c33.6-.5 34.5-.6 13.5-.9-35.9-.5-30.8-1.9 8-2.2l35.5-.2-32.8-.8c-18.1-.4-33.2-1-33.5-1.3-.3-.3 20.6-.7 46.4-.8 45.2-.2 46-.3 21.9-1-61.9-1.9-64.4-2.4-15-2.8l46-.3-62-.8c-34.1-.5-63.6-1-65.5-1.2-1.9-.2 25.8-.5 61.5-.7l65-.4-55.7-.5c-30.6-.3-56-.9-56.4-1.3-.4-.5 4.4-.9 10.7-.9 6.3-.1 30.8-.5 54.4-.8l43-.7-27-.4-27-.5 28-.5 28-.5-41.2-.3c-26.1-.1-41.4-.6-41.8-1.2-.4-.7 7.8-1.1 23.7-1.2l24.3-.2-19-.6c-25.8-.7-15.3-1.9 18.4-2.2 18.6-.1 22.5-.3 16.1-.9-4.7-.4-22-.8-38.5-1-26.4-.2-28.3-.3-16-1 7.7-.3 24.8-.8 38-1 19.5-.3 15.4-.5-21.5-.9l-45.5-.5 42.5-.9c25-.6 40.6-1.3 38-1.7-2.5-.4-23.6-.9-47-1.1l-42.5-.3 33.5-.5 33.5-.5-28-.5c-26.3-.4-25-.5 23-1.1 28.6-.3 53-1.1 55.5-1.6 4.3-1 4-1.1-5-1.3-6.7-.2-8.6-.5-6.5-1 4.1-1-90-1.1-95-.1-3.6.8-3.1.9 4 1.1l8 .3-5 .9c-6 1.2-67.3 2.3-66.2 1.2.4-.4 2.6-1.1 5-1.5 3.4-.5 2.4-.7-4.8-.9-17.5-.4-4.3-1.8 19.5-2 24.3-.3 53.8-1.4 48.5-2-1.6-.1-9.5-.6-17.5-1-12.3-.5-9.8-.7 17-.8 17.3-.1 34.7-.5 38.5-1 6.2-.6 5.1-.8-9.5-1.2l-16.5-.6 24-.3c19.4-.3 22.4-.6 15.5-1.2-4.7-.4-26.3-.7-48-.6-21.7 0-36.3.3-32.5.7 4.6.4-1.5.8-18 1-24.9.4-25 .4-9 1 15.6.5 15.8.5 7.5 1.2-4.7.5-22.9.9-40.5.9-28.5.2-30.3.3-16.7 1 8.5.4 15.5.9 15.8 1.1.8.9-37.4 1.8-65.1 1.6-20.9-.2-25-.4-16-.8 13.5-.7 12.3-.9-8.5-2-12.5-.6-10.2-.7 16.1-.8 16.8-.1 34.2-.5 38.5-1 7.3-.6 6.6-.7-9.1-1.2l-17-.6 24-.4c16.7-.2 21.7-.6 16.5-1-4.1-.4 9.6-.8 30.5-1 20.9-.1 45.4-.6 54.5-1 15.8-.6 15.2-.7-14.5-1l-31-.5 28.5-.5c19.3-.3 25.4-.7 19-1-6.8-.4-2.7-.7 14-.9 12.9-.2 36.1-.7 51.5-1.1 22.3-.6 18.3-.7-20-.4-69.1.6-128.7 1.8-118 2.5 5 .3-11 .6-35.5.6s-49.2-.2-55-.6c-6.2-.3 20.7-1.1 66.5-1.9 42.4-.7 83.5-1.6 91.5-2 13.7-.7 13-.7-13-1-15.1-.2-34.7.2-43.5.7-17.6 1.2-112.7 1.2-100.5.1 4.1-.4 28.9-.9 55-1.1l47.5-.4-52.5-.5-52.5-.5 41-.4c38.2-.4 40.2-.5 28.5-1.5l-12.5-1.1 22.2-.5c12.2-.3 22.4-.8 22.8-1.1.3-.4-11.7-.8-26.7-1.1-18.6-.2-27.9-.7-29.3-1.6-1.6-.9.7-1.2 12-1.3 12.3-.1 13.3-.3 8-1-3.3-.5-8.5-1.4-11.6-1.9-3-.6-9.1-1.1-13.5-1.1-5.7-.1-7.1-.3-4.9-.9 1.7-.4-6.5-.9-19.5-1.1l-22.5-.3 22-.6 22-.6-25-.4c-17.9-.3-7-.6 38-1l63-.5-57.5-.4c-31.6-.2-60.6-.7-64.5-1.1-4.4-.4 6-.8 28.5-1.1l35.5-.4-27.5-.5-27.5-.5 25-.4c13.8-.2 32.4-.7 41.5-1.1 14.1-.5 11.1-.7-21-.9-52.1-.5-70.5-1.7-31.5-2 50.5-.5 53.3-1.7 5-2.1l-44-.4 32-.7c17.6-.3 41.7-.8 53.5-.9 21.3-.3 21.4-.4 10-1.2-6.3-.4-26.6-1.2-45-1.6l-33.5-.8 38.5-.4c23-.2 34.5-.6 28.5-1l-10-.6 10-.5 10-.5-14.5-.4-14.5-.4 9.5-.6c6.2-.4-1.9-.8-23.5-1-39.7-.5-34.3-.8 29.5-1.9l48.5-.8-35.5-.3c-19.5-.2-31.7-.6-27-.9 6.3-.5 1.2-.9-20-1.6l-28.5-1 14.5-.6c8-.4 20.6-.8 28-1l13.5-.3-11-.6c-10.3-.6-9.7-.6 8.5-1 14-.2 17.7-.5 13-1l-6.5-.7 8-.2c36-1.4 33.5-1.8-13.5-2.2l-49.5-.4 35.5-.5c33.5-.5 34.3-.6 15-1l-20.5-.5 30.5-.5c29.4-.5 28.6-.6-22.5-1-39.7-.3-48-.6-33-1l20-.6-24.5-.4c-18.8-.4-11.6-.6 31.5-1l56-.5-58.5-.5c-32.2-.2-52.2-.6-44.5-.7 21.4-.5 19.4-1.7-3.5-2.3-13.3-.4 2.1-.7 43.5-1 59.6-.4 61.6-.5 29-1l-35-.5 27.5-.5c25.9-.5 24.6-.6-21-1l-48.5-.5 36-.5 36-.5-30-.4c-54.8-.6-61.8-1.7-13.5-2.1 23.9-.2 40.1-.6 36-1-6.9-.6-6.4-.7 6-1 10.6-.3 12.3-.5 8-1-3.5-.4 2.8-.8 17-1l22.5-.4-32-.7c-17.6-.3-48.2-.8-68-.9-26.2-.3-33-.5-25-1 6.1-.4 32.8-.9 59.5-1.1 51.8-.4 49.9-.5-21-1.8l-45.5-.8 38.9-.1c21.4-.1 38.6-.5 38.2-1-.4-.4-11-.9-23.4-1.3-20.2-.4-17.8-.6 21.8-.9l44.5-.5-41.5-.5-41.5-.5 30.5-.5c16.8-.2 24.7-.6 17.5-.7-15.8-.3-21.1-1.4-11.5-2.3 3.6-.4-13.5-.8-38-1.1-40-.3-42.1-.4-20.5-.9 13.2-.3 22-.8 19.5-1.1-4.1-.5-3.8-.6 2.5-.8 5-.2 6.4-.5 5-1.1-1.1-.5-1.5-1-1-1.1.6-.2-8.2-.6-19.5-.9-20-.5-19.7-.6 13-.9 18.4-.2 42.3-.7 53-1.1 16.6-.5 12.6-.7-27.5-1l-47-.4 30.7-.5c16.8-.4 31-.9 31.4-1.4.4-.4-18.4-.8-41.7-.9l-42.4-.3 33.5-.5c26.8-.4 30.4-.6 18-1-11.9-.4-7.2-.6 20-1l35.5-.5-36.5-.3c-24-.1-36-.6-35-1.2.9-.6 18.4-1 44.4-1 23.6 0 42.6-.3 42.2-.7-.3-.4-22.8-1-49.9-1.3l-49.2-.6 48-.3c26.4-.2 50.7-.7 54-1.1l6-.7-8-.4-8-.3 11-.6c6.5-.4-7.5-.8-34-1-24.7-.2-41.6-.6-37.5-1 4.5-.4-4.8-.8-23.5-1-31.6-.3-32.1-1.4-1-2.1l15-.3-15.5-.6c-11.4-.4-5-.7 24.5-.9 22-.2 46.8-.7 55-1.1 12.5-.5 8.7-.7-23-1-20.9-.2-33.9-.6-28.9-.7 5.1-.2 21-.7 35.5-1.2 24-.7 21-.8-31.5-.9-31.9-.1-57.7-.5-57.4-.8.3-.3 28.4-.9 62.4-1.3l61.9-.8-44-.4c-38.3-.3-41.2-.4-22-.9l22-.6-27-.3c-14.8-.2-33.7-.7-42-1.1-13.1-.6-10.9-.7 17.5-.9 17.9-.2 35.2-.7 38.5-1.1l6-.7-7.9-.2c-4.4 0-7.7-.4-7.3-.7.3-.4 14-1 30.4-1.4l29.8-.7-38-.2c-20.9-.2-40.5-.6-43.5-1.1-3.4-.4 8.9-.9 31.5-1.1l37-.3-26.5-.6-26.5-.6 30.5-.4 30.5-.4-36.5-.7c-20.1-.3-41.4-.8-47.5-.9-10.5-.3-10.2-.4 6.5-1.1 9.6-.3 26.7-.8 38-1l20.5-.4-30-.5-30-.5 30.8-.3c19.6-.1 30.7-.6 30.7-1.2s-3.2-1.1-7.2-1.2l-7.3-.1 8.5-.8c10.5-.9 77.8-.8 69.5.1l-6 .7 8.5.2c4.7.1 9.4.6 10.5 1.1 1.2.5-9.7 1-27 1.2l-29 .3 31.5.5c29.6.5 30.3.6 12 .9-10.7.2-26.2.7-34.5 1.1l-15 .6 12.5.4c6.9.1 29.8.6 51 .9l38.5.7-28.5.4-28.5.5 28.5.5 28.5.5-35.5.4c-45.8.5-34.4 1.7 20 2.1l40.5.3-25.7.7c-25.8.6-35.9 1.9-17.2 2.1 6.7.1 8.9.4 6.9.9-1.6.4-16.7.9-33.5 1.1-30.3.3-30.4.3-12.5 1 9.9.3 31.1.8 47 1l29 .3-19 .6c-15.2.5-11.7.6 17 .6 19.8.1 48.4-.2 63.5-.5l27.5-.7-24.5-.3c-13.5-.2-30.3-.7-37.5-1-10.5-.6-6.4-.8 21-1 31.4-.3 60.9-1.5 45.1-1.9-3.3-.1-5.7-.5-5.3-.8.3-.3 15.5-.9 33.9-1.3l33.3-.8-36.5-.2c-20.1-.1-38.3-.6-40.5-1-2.5-.6 10.7-1 34.5-1.2l38.5-.3-25-.6-25-.6 32-.4 32-.4-34.5-.6c-55.1-1.1-57.5-1.2-36-2.1 10.2-.3 28.4-.8 40.5-1l22-.4-29-.5-29-.5 32-.3c18.5-.1 32.6-.6 33.5-1.2 1.1-.7-.4-1-5-1.2l-6.5-.2 8.5-.6c5.1-.4-5.4-.8-26.5-1-21.1-.2-31.6-.6-26.5-1 7.6-.6 6.8-.7-8-1l-16.5-.4 14-.5 14-.6-17-.5c-11.5-.4-1.4-.7 31-.9 26.4-.2 52.1-.6 57-1 8.7-.8 8.4-.8-7.5-1.2l-16.5-.3 24-.6 24-.6-26-.2c-16.7-.2-25.3-.7-24-1.2 1.1-.5 16.9-1.3 35-1.8l33-.9-46.5-.3c-25.6-.2-44-.6-41-.9 4.8-.5 4.2-.6-5-1.1-6.8-.4 1.9-.8 24.5-1l35-.5-25-.5c-23-.4-21.2-.5 22-1l47-.5-57-.4c-31.3-.2-55.2-.7-53-1.1 3.3-.6 2.6-.8-4.5-1-8.2-.3-8.1-.4 4.5-1.1 7.2-.3 22.7-.8 34.5-1 20.8-.3 21-.3 8-.9l-13.5-.5 18-.6c21.2-.8 50.7-2.7 51.4-3.4.2-.3-13-.6-29.5-.7-21-.1-26.5-.4-18.4-.8 9.7-.5 7.7-.7-13-1l-24.5-.4 18.5-.7c10.2-.3 21.4-.7 24.9-.8 3.5 0 6.2-.4 5.9-.7-.3-.3-14-.9-30.4-1.3l-29.9-.8 30-.1c16.5-.1 42.6-.5 58-1 23-.6 26.2-.8 18-1.3-12.5-.8-84.4-.8-75.5 0 7.8.7-42.8 2-86.5 2.3l-31 .1 24.8.8c24.6.7 33.8 1.8 17.6 2-4.6.1-17.8.5-29.4.9l-21 .6 21.5.4c21.5.4 21.5.4 8 1-11.6.5-9.6.6 14 .9 26.4.4 27 .4 14 1.2-38.6 2.3-51.9 2.9-67 3.1-12.9.1-14.8.3-9 .8 10.4.9-20.2.9-47.5 0-16.9-.5-18.6-.7-8.7-.8 7.3-.1 12.2-.6 12.2-1.2s3.1-1 7.3-1.1c3.9-.1 8.3-.5 9.7-.9 1.4-.4-11.6-.9-29.5-1.1-20-.2-28.6-.5-23-.9 6.4-.4 1.5-.7-17-1l-26-.3 20.4-.8c33-1.3 31.2-1.6-15.9-2.9l-25.5-.6 29.5-.2c16.2-.1 41.4-.5 56-1 23.3-.6 25.2-.8 15.5-1.3-6-.4-31.7-.8-57-1l-46-.4 31-.5c25.9-.5 28.4-.6 15.5-1l-15.5-.4 16-.6c21.1-.8 15.5-1.1-29-1.9l-37-.7 39.5-.4c24.6-.2 35.5-.6 29-1-7.3-.4-2-.7 17.4-.8 15.4-.1 27.7-.4 27.4-.7-.9-.9-49.2-2.8-89.3-3.4-22.3-.4-33-.8-25-1 16-.4 15.4-.8-3-2-10.1-.6-1.6-.9 38-1.2l51-.4-36-.5c-23.3-.3-31.2-.7-22.5-1l13.5-.4-11.5-.6c-8.3-.4-2.1-.7 22-1l33.5-.5-30.5-.5c-16.8-.3-30-.7-29.5-1 .6-.2-3.5-.7-9-1-7.6-.5-3.7-.7 16.5-1l26.5-.5-40-.5-40-.5 65.5-.5 65.5-.5-42.5-.5c-39.3-.5-41.1-.6-24.1-1.3 10.1-.4 24.1-.8 31-.8 8-.1 11.5-.4 9.6-.9-1.6-.4-22.8-.9-47-1.1-31.3-.3-36.8-.4-19.2-.6 13.6-.2 24.6-.7 24.3-1.2-.3-.4 11-1.1 25.2-1.6 25.3-.7 47.2-2 40-2.3-2-.1-4-.6-4.3-1.2-.4-.6-15.5-1.1-41.3-1.2-22.4-.1-36.9-.5-32.2-.8 6.9-.5 4.8-.7-11-1l-19.5-.3 29.3-.8c16.2-.4 29.6-1 29.9-1.3.4-.3-11-.7-25.3-.7-14.2-.1-31.7-.5-38.9-.8-9.3-.6.5-.8 34-1.1 25.9-.1 52.4-.6 59-1l12-.6-17-.4c-9.3-.1-31.4-.6-49-.9l-32-.7 49.9-.2c27.5-.1 49.7-.4 49.4-.8-.3-.3-20.3-.9-44.4-1.3l-43.9-.8 31.5-.3c27.4-.3 29.7-.4 18-1.1-7.4-.4-25-1-39-1.5-14-.4-24.4-1.1-23-1.5 4.1-1.1 48.4-1 62 .2 8.6.8 15.6.8 22.5.2l10-1-17.5-.3-17.5-.4 20-.6c11-.4 27-.7 35.5-.7l15.5.1-13.5.6c-11.6.5-10.1.6 10 .7 12.9 0 33.4-.3 45.5-.6l22-.7-25-.4-25-.5 34.5-.5c32.6-.6 31.8-.6-15-.6-27.2.1-47.2-.2-44.5-.6 2.8-.3 20.3-.8 39-.9l34-.3-25.5-.6-25.5-.6 21.5-.3 21.5-.4-17.3-.7c-18.5-.8-24.4-2-9.5-2 4.9 0 12.6-.3 16.9-.8 7.3-.6 6.5-.7-9.1-1.2l-17-.5 12-.8c6.6-.4 13.6-1.1 15.5-1.5 3.2-.6 3-.7-2.5-1.2l-6-.5 7-.7c3.9-.5 10.4-.9 14.5-1 4.1-.1-.1-.5-9.5-.8l-17-.6 19-.3c10.5-.2 33.4-.7 51-1l32-.7-41.5-.3c-55-.4-61.5-1.5-14-2.5 20.6-.4 46.3-1.1 57-1.5l19.5-.7-27.7-.2c-17.1-.1-27.9-.6-28.3-1.2-.4-.6 2.6-1.1 8.2-1.1 4.8-.1 24.1-.5 42.8-.8l34-.7-40.1-.2c-48-.2-82-1.3-75.4-2.3 2.5-.4 26.8-.9 54-1.1l49.5-.3-44.5-.5-44.5-.5 34.5-.9c19-.4 45.1-1.1 58-1.5l23.5-.7-22-.4-22-.5 30.5-.5 30.5-.5-35.5-.4c-19.5-.2-44.3-.7-55-1.1-14.6-.5-5.7-.7 35.5-.8 33.5-.2 55.6-.6 56.5-1.2 1-.6-14.9-1-46-1.2-29.3-.1-41.8-.4-32.5-.8 14.3-.6 14.5-.6 4.5-.8-5.8-.1-15-.5-20.5-.9-9.2-.7-9.6-.8-5.5-1.5 2.5-.5 16.4-1.2 31-1.6l26.5-.7-17-.5c-12.8-.4-6.7-.7 25-1 44.1-.5 42.6-.6-25-1.9l-42-.8 48-.3c26.4-.1 53.4-.6 60-1l12-.6-11.5-.3c-28.7-.7-28.2-1.8 1-2.1 16.2-.1 28.2-.6 26.5-1-1.6-.4-28.9-.9-60.5-1.1l-57.5-.4 64.5-.5 64.5-.5-48.5-.5c-32.1-.3-43.6-.6-34-1 13.5-.5 12.7-.6-12-1l-26.5-.4 22-.6c15.5-.4 19.2-.7 12.5-1-8.4-.3-7.6-.4 8-1.1 9.6-.3 23.4-1 30.5-1.5l13-.9-24.5-.5c-22.7-.5-21.2-.6 20-1 39.7-.4 42.1-.5 22-1l-22.5-.6 26.3-.2c14.4-.1 26.2-.6 26.2-1.1 0-1.5-7.2-2.1-28.9-2.1-11.8 0-21.1-.3-20.7-.7.4-.4 12.5-1 26.9-1.4l26.2-.5-25.4-.2c-14-.1-25.1-.5-24.7-.9.4-.4 17.9-1 38.9-1.3 37.6-.6 37.1-.6-28.8-1.1-61.8-.3-64.2-.4-30.5-.9 33.9-.5 35-.6 16-1-15.7-.4-9.5-.6 27-1l47.5-.5-41.5-.4c-22.8-.2-50-.6-60.5-1l-19-.6 29.5-1.2c16.2-.7 45.6-1.6 65.2-1.9 41.1-.7 52.9-2.1 21.3-2.4-11.5-.2-41.9-.6-67.5-.9l-46.5-.7 49.6-.2c47.9-.2 63.8-.9 50.9-2.3l-5.5-.6 7.5-.2c24-.9 15.5-1.8-19.5-2.2l-39-.4 36-.5 36-.5-41-.4c-38.1-.4-44.9-1.4-14.5-2.1 8.4-.2 10.3-.5 7-1-4.5-.6-4.5-.6 2.5-1.3 3.9-.3 16-1.1 27-1.6 11-.6 21.4-1.2 23-1.4 1.7-.2-20.4-.5-49-.7l-52-.3 48-.8c54.8-.9 64.9-1.5 32.5-1.8-12.4-.1-28.6-.6-36-1.1-7.4-.5-28.6-1.3-47-1.7-18.4-.4-31-1.1-28-1.4 8-.8-55.7-.8-67 .1-9.2.7-8.9.7 6.5.9 8.8.1 24.1.6 34 1.2 9.9.6 29.5 1.4 43.5 1.8 29.1.8 28.8.9-45 2l-41.5.7 50 .4c27.5.2 48.4.5 46.5.7-1.9.1-15.4.8-30 1.4-39.9 1.7-45 2.1-41.5 2.9 1.8.5-2.4.9-10.5 1-34.6.6-31.4 1.7 6 2.1l38.5.4-37.5.5-37.5.5 37 .4c34.2.4 39.6 1.4 11.5 2.1-6.1.2-7.5.4-5 .9 3.2.6 2.9.7-2.9 1.4-7.4.8-68.1.7-63.6-.2 2.5-.4 2.1-.6-2.5-1.1l-5.5-.7 7.5-.2c24-.9 15.5-1.8-19.5-2.2l-39-.4 36-.5 36-.5-40.5-.4c-37.9-.4-44.4-1.4-13.5-2.1 8.6-.2 10.7-.5 7.5-1-4.2-.6-4-.7 3.5-1.2 4.4-.4 17.7-1.1 29.5-1.7 11.8-.6 22.9-1.2 24.5-1.4 1.7-.2-20.2-.5-48.5-.7l-51.5-.3 49.5-.8c55.6-.9 66.8-1.5 35-1.8-11.8-.1-27.1-.6-34-1.1-6.9-.5-26.3-1.3-43.3-1.6-16.9-.4-30.4-1-30.1-1.3.3-.3 25.2-.8 55.2-1.2l54.7-.5-54.5-.4c-34.1-.2-50.6-.6-44-1 5.8-.4 33.7-.9 62-1.1 28.3-.1 47.5-.6 42.5-.9-5-.3-7-.7-4.5-.8 2.5-.1 8.3-.5 13-.9 14.3-1.2 5-2-26-2.4l-28.5-.3 19-.6c13.9-.4 5.3-.7-32.5-1l-51.5-.4 27.5-.8c15.1-.4 43-1.2 62-1.6l34.5-.8-39.5-.4-39.5-.5 35-.5 35-.5-17-.9c-9.3-.5-23.5-1.1-31.5-1.5l-14.5-.6 11.5-.7c6.3-.5 21.6-.9 34-1l22.5-.2-27.5-.7c-15.1-.3-41.4-.8-58.5-.9-33.6-.3-30.7-1.5 5-2.1 17.7-.3 18.2-.3 8-.9l-11-.6 12.5-.4 12.5-.4-12-.6c-8.7-.3-3-.6 20.5-1 32-.5 31.7-.5-21-1-61.8-.5-53.9-1.3 24.5-2.7l48-.8-36.5-.7c-20.1-.3-48.6-1-63.5-1.5l-27-.8 13.5-.7c7.4-.4 29.9-1.1 50-1.5l36.5-.8-36.5-.5-36.5-.5 36.5-.5 36.5-.5-51-.5-51-.5 61-.5c35.4-.2 54.9-.7 46.5-1-14.2-.6-14.3-.6-5-1 6.1-.2-.5-.7-18-1.2-15.1-.4-34.9-1.1-44-1.6-16.3-.8-16.1-.9 16.5-1.2 31.1-.4 31.9-.4 13.8-1-10.5-.3-19.5-.8-19.9-1.3-.4-.4 17.2-.8 39.2-.9 33.3-.1 37-.3 22.4-.9-9.6-.3-31-.8-47.5-1l-30-.3 26.3-.6c18.4-.4 26.5-.9 27.1-1.8.4-.7 4.7-1.2 11.6-1.5 8.9-.2 7.6-.3-6.5-.6-29-.5-24.7-1.9 7-2.2 25.5-.3 27.4-.4 14-.9-12-.4-14-.6-9-1.1 3.6-.3-18.9-.7-50-.9-48.2-.4-52.5-.5-29.5-1l27-.5-23.5-.4c-13.5-.2-22.2-.7-20.5-1.1 2.6-.6 2.2-.8-2.5-1-3-.1-7.5-.5-10-.9-2.6-.5 19.6-1 52.5-1.2l57-.4-53-.5c-36.4-.4-45.8-.6-30-.9 100.5-1.6 103.8-1.7 80.5-2-13.1-.2-21.5-.6-20-1.1 1.4-.4-13.8-.9-34-1.1l-36.5-.4 33.5-.5 33.5-.5-25.9-.8c-14.3-.4-31.7-.7-38.7-.7-7.4 0-13-.4-13.4-1-.4-.7 19.5-1.1 58.7-1.2 52.1-.2 55.3-.3 26.3-.8l-33-.5 31.5-.5 31.5-.5-21-.5-21-.5 23.5-.5c21.3-.5 19.5-.6-19.5-.9-23.6-.2-54.2-.7-68-1.1-21.3-.5-16.3-.7 33.5-1 66.4-.3 63.1-1.4-9-2.8l-42.5-.9 33-.3c18.2-.1 42.9-.6 55-.9 18.1-.6 11.5-.8-37-1.1-48.8-.4-54.3-.5-32-1l27-.5-22-.3c-44.3-.7-30.2-2 23.5-2.2 30-.2 59.9-.6 66.5-1 7.2-.4-12.5-.8-49.5-.9-34.9-.2-59.6-.7-57-1.2 2.5-.4 14.4-.9 26.5-1l22-.3-16-.6c-11.3-.4-2-.7 31.5-1l47.5-.5-46-.5-46-.5 43-.5 43-.5-59-.4c-32.4-.2-57-.7-54.5-1.1l4.5-.7-5-.4c-2.7-.2 20.9-.6 52.5-.9l57.5-.5-54-.5-54-.5 49-.5 49-.5-54.5-.5c-53.9-.5-54.2-.5-22-1l32.5-.5-32.5-.5-32.5-.4 30-.6c16.5-.4 45.5-.9 64.5-1 33.7-.4 34.1-.4 15-1-10.7-.4-35.2-.8-54.5-1-50.1-.3-64.1-1.6-24-2.1l31-.4-32-.5-32-.5 45.5-.5 45.5-.4-32-.7c-17.6-.3-39.6-.7-48.9-.8-9.3 0-16.7-.4-16.3-.7.3-.3 15.6-1.1 33.9-1.6 71.4-2.1 74.5-2.4 34.3-2.7-19.8-.2-40.3-.6-45.5-1-9.2-.6-9-.6 8.9-1.4 10.1-.4 27-.8 37.5-.9l19.1-.2-23.5-.6-23.5-.6 31.5-.4 31.5-.5-48.5-.5-48.5-.5 41-.4c22.6-.2 48.4-.7 57.5-1.1 15-.6 13.5-.7-16.5-.9-18.1-.2-37.7-.7-43.5-1.1-8.7-.5-6.4-.7 13.5-.8 13.5-.2 24.7-.7 25.5-1.2 1-.6-5.7-1-20-1.2l-21.5-.1 25.5-.8c36.7-1.1 43.1-2.6 13.5-3l-23-.4 28.5-.5c25.3-.5 22.5-.6-25.5-.9-29.7-.2-58.9-.7-65-1.1-6.5-.4 15.3-.8 53.5-1l64.5-.4-54-.8c-78.6-1.2-84.7-2.4-13-2.7 32.5-.1 60.8-.6 63-1 2.5-.6-9.3-1-31.5-1.2-32.3-.3-33.7-.4-16-.9 17.9-.5 16.8-.6-13.4-.8-18.1-.1-32.6-.5-32.2-1 .4-.4 19.1-.9 41.4-1.3l40.7-.5-33.5-.3c-18.7-.2-32.4-.7-31-1.1 1.4-.4 10.2-.8 19.5-.9 9.4-.1 22.2-.4 28.5-.8 9.7-.6 10.8-.8 7-1.4-2.5-.4-12.4-.8-22-.9-23.8-.3-17-1.8 12.5-2.9 19.7-.7 16.4-.8-33-1.2l-55-.4 41.5-.5c32.4-.4 37.4-.6 23-1l-18.5-.5 28-.5 28-.5-29.5-.5-29.5-.5 34.5-.5 34.5-.5-26.5-.5-26.5-.4 25-.6c21.6-.5 17.8-.6-27.5-1l-52.5-.5 37.5-.5c35.6-.5 36.3-.6 13-.8-13.5-.2-26.3-.7-28.5-1.1-2.4-.5 9.5-.9 30.7-1 21.9-.1 34.9-.5 35.3-1.1.4-.7-13.6-1-41.2-1.1-23-.1-42.9-.5-44.3-.9-1.4-.4 11.8-.9 30-1.1l32.5-.3-21.5-.6c-19.5-.5-17.8-.6 19-1 33.3-.3 37.8-.5 25-1-8.5-.4-38.7-.9-67-1-32.3-.2-47.6-.6-41-1 5.8-.4 29.4-.8 52.5-.9 48.3-.3 53.2-1.7 10.1-3l-27.1-.8 21.5-.3c19.4-.3 20.5-.4 11-1-5.8-.4-26-.9-45-1l-34.5-.3 40.5-.8c22.3-.5 46.8-1 54.5-1.1 7.7-.2-13.2-.6-46.5-.8l-60.5-.5 40-.5 40-.5-34-.5c-33.3-.5-32.9-.5 22.5-1l56.5-.5-55.5-.5c-30.5-.2-50.1-.7-43.5-.9l12-.5-12.5-.6c-6.9-.3 11.1-.8 40-1 28.9-.2 51.2-.5 49.5-.7-1.6-.2-24.4-.7-50.5-1.2l-47.5-.8 40-.3c22-.2 38.4-.6 36.5-.9-1.9-.3 3.7-.8 12.5-1.1 9.4-.4-7.6-.8-41.5-1-57.3-.5-57.4-.5-22.5-1l35-.5-45-.5c-41.2-.4-43-.5-21-1 22.6-.5 23.2-.6 10.5-1-11.4-.5-9.5-.6 12.5-.9 57.3-.8 60.1-1.7 6-2-29.1-.2-51.9-.6-50.5-1 1.4-.5 26.2-1.4 55-2.1 28.9-.7 52.7-1.4 52.9-1.6.2-.2-16.2-.5-36.5-.5-20.3-.1-45-.5-54.9-.8-14-.6-5.5-.8 37.5-1.2l55.5-.4-52.5-.5c-31.6-.3-49.7-.8-45.5-1.2 3.9-.5 12.2-.8 18.5-.8 6.3 0 16-.3 21.5-.8 8.7-.6 6.5-.8-16-1.2-24.3-.5-23-.6 19.5-.9 43.9-.4 44.7-.5 22.5-1.2-12.6-.4-26.1-1.2-30-1.8-3.8-.6-13.3-1.1-21-1.1-9.4 0-13.5-.3-12.5-1 1-.6-5-1-18-1.2l-19.5-.2 15-.6c8.3-.4 34.6-.8 58.5-.9 26.1-.1 44.1-.5 45-1.1 1-.6-13.3-1.1-41.5-1.2-42.4-.2-42.6-.3-14.5-.8l28.5-.5-20.5-.7c-11.3-.5-36.2-.9-55.5-1-33.2-.3-32.4-.3 17-.8 50.9-.5 51.2-.5 16-.8-19.8-.1-40.5-.5-46-.9l-10-.8 6-.6c3.3-.4 22.4-.8 42.5-1l36.5-.4-37-.5-37-.5 35-.4c42.2-.4 58.3-1.6 27.5-2.1-17.4-.3-19.1-.4-11.2-1 5-.4 9.5-1 9.9-1.3.3-.4-7.2-.8-16.8-.8-9.6-.1-22.8-.5-29.4-.9-10.1-.5-7.4-.7 16.5-1l28.5-.3-40.5-.8c-63.2-1.3-65.8-1.4-28.5-1.8 45.9-.5 38.1-1.9-12.5-2.3l-38.5-.3 47-.5c43.4-.5 44.9-.6 19-.9-15.4-.2-35.4-.7-44.5-1.1l-16.5-.6 25.6-.2c14.1-.1 38.6-.5 54.5-.9 26.5-.7 28-.8 17.9-1.6-6-.4-25.6-1.1-43.5-1.6l-32.5-.8 39.5-.2c21.7-.2 41.8-.6 44.5-1.1 2.9-.4-14.7-.8-41.5-1-25.6-.1-53-.6-61-1-9.9-.4 2-.7 38-.9 28.9-.1 54.3-.6 56.5-1 2.4-.5-11.9-1-36.5-1.1-22.3-.2-47.7-.5-56.5-.9l-16-.6 19-.7c10.5-.5 33-1.1 50-1.5 17.1-.3 29.4-1 27.5-1.4-1.9-.4-28.9-.9-60-1.3-31.1-.3-58.4-.9-60.7-1.2-11.8-1.8 2.2-2.4 57.5-2.6l60.7-.3L403 52c-49.3-.5-50.2-.5-21.5-1l30-.5L379 50l-32.5-.5 29.5-.4c28.2-.4 28.8-.5 14-1.1-8.5-.4-18.9-.8-23-1-10.6-.3-5.2-1.7 11-2.8l12.5-.9L377 43c-57.7-1.2-59-1.6-5.5-2 30-.2 51.1-.6 47.5-1-3.6-.4-26.1-.9-50-1-41.5-.3-45.9-1.3-9.5-2.1l14-.3-11-.6c-6.3-.3 6.4-.7 29.8-.8 26.9-.1 40.6-.5 40.2-1.2-.4-.6-24.2-1.1-67.3-1.2-56.3-.2-61-.4-30.2-.8l36.5-.5-39-.5-39-.5 55-.5c35.6-.3 49.3-.6 39-1-8.8-.3-15.8-.7-15.5-.9.3-.2 8.6-.7 18.5-1.1l18-.6-24.5-.3c-28.9-.4-37.3-1.8-13-2.2 14.9-.2 13.7-.3-11.5-1-48.8-1.1-49.9-1.4-9.5-1.9l39.5-.5-51.5-.4c-29.3-.2-48.9-.7-45.5-1.1 3.3-.4 24.2-.9 46.5-1.1l40.5-.3-52.5-.7c-28.9-.3-56.1-.8-60.5-.9-10-.5 24.6-1.6 61.5-2.1 26.6-.3 26.9-.3 11-.9l-16.5-.6 15.9-.2c8.8-.1 15.6-.5 15.2-.9-.3-.4-23.7-1-51.9-1.3l-51.2-.6L307 9c35.6-.3 49.8-.6 38.5-1-19.5-.5-19.6-1.8-.1-2.2 6.1-.1-14.8-.5-46.4-.9-31.6-.3-64.7-1-73.5-1.5l-16-.9L223 2c15.5-.7-37.8-.8-71-.2zm422.3 365.9c-8.4.2-22.2.2-30.5 0-8.4-.1-1.6-.3 15.2-.3s23.6.2 15.3.3zm106.2 1c45.9.9 39.5 1.9-16 2.6-27.2.3-34.3.2-21-.3 11-.4 20.2-.9 20.5-1.1.3-.2-11.6-.6-26.5-.9-22.6-.5-24.3-.6-10.5-.8 9.1-.1 33.2.1 53.5.5zm-92 4.8l-25 1.2 15.4.1c8.5.1 15.2.5 14.8.8-.3.3-14.9.2-32.4-.2l-31.8-.9 21-1.1c11.6-.6 30.5-1.1 42-1.1h21l-25 1.2zm83.3 3.2c-3.8.2-9.8.2-13.5 0-3.8-.2-.7-.3 6.7-.3s10.5.1 6.8.3zm-96 1c-3.2.2-8.4.2-11.5 0-3.2-.2-.6-.3 5.7-.3s8.9.1 5.8.3zm38 1c-2.6.2-7.1.2-10 0-2.9-.2-.8-.3 4.7-.3s7.9.1 5.3.3zm-74 1c-2.1.2-5.7.2-8 0-2.4-.2-.7-.4 3.7-.4s6.3.2 4.3.4zm132 1c-1.5.2-4.2.2-6 0-1.8-.2-.6-.4 2.7-.4 3.3 0 4.8.2 3.3.4zm-66 1c-1 .2-2.8.2-4 0-1.3-.2-.5-.4 1.7-.4 2.2-.1 3.2.1 2.3.4zm-15.5 1c-.7.2-1.9.2-2.5 0-.7-.3-.2-.5 1.2-.5s1.9.2 1.3.5zm-85 79c-3.4.2-9.3.2-13 0-3.7-.2-.9-.3 6.2-.3 7.2 0 10.2.1 6.8.3zm-66.6 75.9c-.3.3-1.2.4-1.9.1-.8-.3-.5-.6.6-.6 1.1-.1 1.7.2 1.3.5zm-43.4 1.1c-.7.2-2.1.2-3 0-1-.3-.4-.5 1.2-.5 1.7 0 2.4.2 1.8.5zm-19.5 1c-1 .2-2.8.2-4 0-1.3-.2-.5-.4 1.7-.4 2.2-.1 3.2.1 2.3.4zM394 541c-1.4.4-5 .8-8 .8-4.9-.1-5.1-.1-2-.8 1.9-.4 5.5-.8 8-.8 3.6 0 4 .2 2 .8zm110.8 1.7c-2.1.2-5.5.2-7.5 0-2.1-.2-.4-.4 3.7-.4 4.1 0 5.8.2 3.8.4zm-89.5 1c-2.3.2-6.4.2-9 0-2.6-.2-.7-.3 4.2-.3 5 0 7.1.1 4.8.3zm51.5 1c-2.6.2-7.1.2-10 0-2.9-.2-.8-.3 4.7-.3s7.9.1 5.3.3zm-43.3 1.4c6.7.1 6.8.2 2.5 1-2.5.4-10.1.7-17 .6-7.5 0-10.5-.3-7.5-.6 4.2-.5 3.3-.7-5.5-1.2-7.9-.5-6.7-.6 5-.3 8.5.2 18.7.5 22.5.5zm89.3 2.6c-4.3.2-11.3.2-15.5 0-4.3-.1-.8-.3 7.7-.3s12 .2 7.8.3zM472 550c-6.9.3-11.6.8-10.5 1.1 1.1.4-6.7.7-17.2.8-11.9.1-19.3-.3-19.3-.9 0-1 15.3-1.5 43.5-1.6h16l-12.5.6zm37.3 2.7c-5.6.2-15.1.2-21 0-5.9-.1-1.3-.3 10.2-.3 11.6 0 16.4.2 10.8.3zm-24.8 1c33.3.9 28.3 2.1-8 2-13.2-.1-20.8-.3-17-.6 5.3-.4 2.7-.7-10.5-1.1-17-.6-17.1-.6-5-.8 6.9-.1 25.1.1 40.5.5zm-66 3.1c23.5.6 26.2.8 16.5 1.3-10.9.5-10.5.5 7.5.8 14.3.3 17.5.6 13 1.1-3.3.4-20.6.8-38.5.7-17.9 0-29.1-.3-25-.7 6.1-.5 4.2-.7-10-1l-17.5-.4 13-.5 13-.6-17-.5-17-.6 17-.2c9.4-.1 29.6.1 45 .6zm70 168.3c-9.9.3-36.2.6-58.5.6-25.5-.1-35-.3-25.5-.7 8.3-.3 34.6-.6 58.5-.6 32.5 0 38.9.1 25.5.7zm-58.7 15.6c-1 .2-2.8.2-4 0-1.3-.2-.5-.4 1.7-.4 2.2-.1 3.2.1 2.3.4zm42.5 0c-5.1.2-13.6.2-19 0-5.4-.1-1.2-.3 9.2-.3 10.5 0 14.9.2 9.8.3zm55 1c-4 .2-10.6.2-14.5 0-4-.1-.8-.3 7.2-.3s11.2.2 7.3.3zm-65.5 1c-3.2.2-8.6.2-12 0-3.5-.2-.9-.3 5.7-.3 6.6 0 9.4.1 6.3.3zm92.7 1.3c4.1 1-11.1 1.1-18.5 0-4.7-.6-4-.7 5-.7 5.8-.1 11.9.3 13.5.7zm-46.2 1.7c-2.4.2-6.2.2-8.5 0-2.4-.2-.5-.4 4.2-.4s6.6.2 4.3.4zm-42.6 1c-2 .2-5.2.2-7 0-1.7-.2 0-.4 3.8-.4 3.9 0 5.3.2 3.2.4zm89.6 1c-1.8.2-4.8.2-6.5 0-1.8-.2-.4-.4 3.2-.4s5 .2 3.3.4zm-51.5 1c-1.5.2-4.2.2-6 0-1.8-.2-.6-.4 2.7-.4 3.3 0 4.8.2 3.3.4zm-25.5 1c-1.3.2-3.3.2-4.5 0-1.3-.2-.3-.4 2.2-.4s3.5.2 2.3.4zm61.5 1c-1 .2-2.8.2-4 0-1.3-.2-.5-.4 1.7-.4 2.2-.1 3.2.1 2.3.4zm12.5 1c-.7.2-2.1.2-3 0-1-.3-.4-.5 1.2-.5 1.7 0 2.4.2 1.8.5zm-54 1c-.7.2-1.9.2-2.5 0-.7-.3-.2-.5 1.2-.5s1.9.2 1.3.5zm42 76c-.7.2-2.1.2-3 0-1-.3-.4-.5 1.2-.5 1.7 0 2.4.2 1.8.5zm-49.5 1c-1 .2-2.6.2-3.5 0-1-.3-.2-.5 1.7-.5s2.7.2 1.8.5zm-19.5 1c-1.3.2-3.5.2-5 0-1.6-.2-.5-.4 2.2-.4 2.8 0 4 .2 2.8.4zm19.5 1c-1.5.2-4.2.2-6 0-1.8-.2-.6-.4 2.7-.4 3.3 0 4.8.2 3.3.4zm-25.1 1c-2 .2-5.2.2-7 0-1.7-.2 0-.4 3.8-.4 3.9 0 5.3.2 3.2.4zm106.1 2c-2.7.2-6.9.2-9.5 0-2.7-.2-.5-.3 4.7-.3s7.4.1 4.8.3zm-86.5 1c-2.9.2-7.7.2-10.5 0-2.9-.2-.6-.3 5.2-.3s8.1.1 5.3.3zm72.2 1.4c-2.2.4-6.9.9-10.5 1-5 .2-3.8.4 5 .9l11.5.6-13 .1c-7.1 0-18.4-.3-25-.7-11.4-.6-11.6-.7-4-.9 4.4-.2 10.3-.6 13-1.1 7.1-1.1 28.3-1 23 .1zm-50.7 3.6c-4.2.2-11.4.2-16 0-4.6-.1-1.1-.3 7.7-.3s12.5.2 8.3.3zM570 842c-5.8.4-18.1.7-27.5.7-15.8-.1-16.3-.1-6-.7 6.1-.3 18.4-.6 27.5-.6 15.6-.1 15.9 0 6 .6zm-57 2l16.5.6-19 .1c-10.4 0-25.7-.3-34-.7l-15-.6 17.5-.1c9.6 0 24.9.3 34 .7zm-16.5 3c4.7.4-.9.7-16.5.7-12.9.1-26.2-.3-29.5-.7-7.9-.9 36.4-1 46 0zm41.2 9.7c-10.9.2-28.5.2-39 0-10.6-.1-1.6-.2 19.8-.2 21.5 0 30.1.1 19.2.2z"/><path d="M798 340c6.6.8 41.7 1.3 40.9.6-.2-.2-11-.6-23.9-.9-13.4-.3-20.7-.2-17 .3zM683.5 342c-7.6.4-2.8.6 15.5.7 14.6 0 29.9-.3 34-.7 9.4-.9-33.5-.9-49.5 0zM793.8 343.7c8.3.2 22.1.2 30.5 0 8.3-.1 1.5-.3-15.3-.3s-23.6.2-15.2.3zM798 513c1.3.9 24.9 1.5 23.9.6-.2-.2-6-.6-12.9-1-8.4-.4-12-.3-11 .4zM745 515c4.1.4 15.8.7 26 .7 17.5 0 17.9-.1 7-.7-6.3-.4-18-.7-26-.7-12.2 0-13.3.1-7 .7zM678.3 516.7c6.5.2 16.8.2 23 0 6.2-.1.9-.3-11.8-.3-12.6 0-17.7.2-11.2.3zM731.5 518c3.3.5-1.2.8-13.5 1l-18.5.4 12 .6c8.7.4 2.7.7-21.5 1-18.4.2-31.5.5-29 .8 2.5.2 32.2 0 66-.5 38.5-.5 56.1-1 47-1.3l-14.5-.6 16-.3c15.2-.4 15.6-.4 7.5-1.2-10.6-.9-58.3-.8-51.5.1zM664.3 584.7c9.2.2 24.2.2 33.5 0 9.2-.1 1.6-.3-16.8-.3-18.4 0-26 .2-16.7.3zM553 586c-6.9.4 4.8.5 26 .2 21.2-.2 38.7-.6 38.9-.8.7-.6-50.8-.1-64.9.6zM616.8 694.7c1.2.2 3 .2 4 0 .9-.3-.1-.5-2.3-.4-2.2 0-3 .2-1.7.4zM545.5 696c2.8.5 8.4.8 12.5.8l7.5-.1-7-.7c-3.8-.4-9.5-.7-12.5-.7h-5.5l5 .7zM666.8 697.7c2.8.2 7.6.2 10.5 0 2.8-.2.5-.3-5.3-.3s-8.1.1-5.2.3zM540.8 698.7c3.4.2 8.8.2 12 0 3.1-.2.3-.3-6.3-.3s-9.2.1-5.7.3zM587.3 699.7c3.7.2 9.7.2 13.5 0 3.7-.2.6-.3-6.8-.3-7.4 0-10.5.1-6.7.3zM542.8 700.7c3.9.2 10.5.2 14.5 0 3.9-.1.7-.3-7.3-.3s-11.2.2-7.2.3zM574 702c-3.9.6-3.4.7 3.7.8 4.5.1 8.5.6 8.8 1.2.3.5 2.3 1 4.3 1.1 2 .1 4.8.5 6.2.9 1.5.5-3.7.8-12.9.9-12.4.1-15.3.4-14.3 1.3 1 1 8.2 1.4 26.5 1.7 29.7.5 28.4 1.8-2.3 2.1-33.2.4-18.3 2 23 2.5 24.3.2 31.7.1 25-.5-15.9-1.5-15.3-1.7 6.5-1.9 30.7-.2 28.6-1.8-3.1-2.3-16.1-.3-27.9-.9-29.4-1.6-2-.8.6-1.1 11.9-1.1 7.9-.1 14.2-.3 14-.5-.7-.8-18.6-2.8-29.4-3.4-7.5-.4-9.1-.7-6.5-1.2 4.6-.9-26.1-.9-32 0zM525.3 715.7c8.7.2 22.7.2 31 0 8.4-.1 1.3-.3-15.8-.3-17 0-23.9.2-15.2.3zM626.8 716.7c9 .2 23.4.2 32 0 8.6-.1 1.3-.3-16.3-.3s-24.7.2-15.7.3zM629.8 723.7c10.6.2 27.7.2 38 0 10.3-.1 1.6-.2-19.3-.2-20.9 0-29.3.1-18.7.2zM574.5 849c-13.7.3-21.4.7-17 .9 6.6.3 7.3.5 4 1l-4 .6 4.9.8c7.3 1.1 40.4.9 38.6-.3-1-.6.4-1 4.5-1.3l6-.3-6-.4c-3.3-.3 5.9-.7 20.5-1l26.5-.6H626c-14.6 0-37.7.3-51.5.6zM649 855c-3.2 1 17.3 1.1 25.5 0 4.6-.5 2.7-.7-8.5-.8-8 0-15.6.4-17 .8zM666.8 857.7c1.2.2 3 .2 4 0 .9-.3-.1-.5-2.3-.4-2.2 0-3 .2-1.7.4zM425.6 949.9c1.4 1.4 80.4 2.6 80.4 1.3 0-.8 3.9-1.2 11.3-1.5 6.1-.1-12.2-.4-40.7-.5-31.3-.1-51.6.2-51 .7z"/></svg>